<svg xmlns="http://www.w3.org/2000/svg" width="24" height="24" viewBox="0 0 24 24" fill="none" stroke="#2e7d32" stroke-width="2" stroke-linecap="round" stroke-linejoin="round"><path d="M21 15a2 2 0 0 1-2 2H7l-4 4V5a2 2 0 0 1 2-2h14a2 2 0 0 1 2 2z"></path><path d="M14.5 7.9c.3-.2.5-.5.5-.9a1 1 0 0 0-1-1 1 1 0 0 0-1 1c0 .4.2.7.5.9"></path><path d="M9.5 7.9c.3-.2.5-.5.5-.9a1 1 0 0 0-1-1 1 1 0 0 0-1 1c0 .4.2.7.5.9"></path><path d="M12 12.5c1.78 0 3.25-1 4-2.5H8c.75 1.5 2.22 2.5 4 2.5z"></path></svg>